{"accessors" : [{"bufferView" : 0, "byteOffset" : 0, "componentType" : 5123, "count" : 16551, "type" : "SCALAR", "max" : [9717], "min" : [0]}, {"bufferView" : 1, "byteOffset" : 0, "componentType" : 5126, "count" : 9718, "type" : "VEC3", "max" : [988.6732788085938, 486.7436828613281, 50.260860443115234], "min" : [-988.6732788085938, -486.7436828613281, -21.126873016357422], "name" : "POSITION"}, {"bufferView" : 1, "byteOffset" : 12, "componentType" : 5126, "count" : 9718, "type" : "VEC3", "max" : [1.0000044107437134, 1.0000044107437134, 1.0000044107437134], "min" : [-1.0000044107437134, -1.0000044107437134, -1.0000044107437134], "name" : "NORMAL"}, {"bufferView" : 1, "byteOffset" : 24, "componentType" : 5126, "count" : 9718, "type" : "VEC2", "max" : [1, 1.0032497644424438], "min" : [0, 0], "name" : "TEXCOORD_0"}, {"bufferView" : 0, "byteOffset" : 33104, "componentType" : 5123, "count" : 6, "type" : "SCALAR", "max" : [3], "min" : [0]}, {"bufferView" : 2, "byteOffset" : 0, "componentType" : 5126, "count" : 4, "type" : "VEC3", "max" : [1, 1, 0], "min" : [-1, -1, 0], "name" : "POSITION"}, {"bufferView" : 2, "byteOffset" : 12, "componentType" : 5126, "count" : 4, "type" : "VEC3", "max" : [0, 0, 1.0000044107437134], "min" : [0, 0, 1.0000044107437134], "name" : "NORMAL"}, {"bufferView" : 2, "byteOffset" : 24, "componentType" : 5126, "count" : 4, "type" : "VEC2", "max" : [1, 1], "min" : [0, 0], "name" : "TEXCOORD_0"}, {"bufferView" : 0, "byteOffset" : 33116, "componentType" : 5123, "count" : 8664, "type" : "SCALAR", "max" : [7203], "min" : [0]}, {"bufferView" : 3, "byteOffset" : 0, "componentType" : 5126, "count" : 7204, "type" : "VEC3", "max" : [3.812999963760376, 0.6910000443458557, 0.1747640073299408], "min" : [0.04000000283122063, -0.009000000543892384, 0], "name" : "POSITION"}, {"bufferView" : 3, "byteOffset" : 12, "componentType" : 5126, "count" : 7204, "type" : "VEC3", "max" : [2.1929921786068007E-05, 0, 1.0000044107437134], "min" : [-1.5462708688573912E-05, 0, -1.0000044107437134], "name" : "NORMAL"}, {"bufferView" : 3, "byteOffset" : 24, "componentType" : 5126, "count" : 7204, "type" : "VEC2", "max" : [1, 1], "min" : [0, 1], "name" : "TEXCOORD_0"}, {"bufferView" : 0, "byteOffset" : 50444, "componentType" : 5123, "count" : 36, "type" : "SCALAR", "max" : [23], "min" : [0]}, {"bufferView" : 4, "byteOffset" : 0, "componentType" : 5126, "count" : 24, "type" : "VEC3", "max" : [-992.6578979492188, 387.072509765625, -17.22313117980957], "min" : [-1001.0761108398438, 378.654296875, -18.00544548034668], "name" : "POSITION"}, {"bufferView" : 4, "byteOffset" : 12, "componentType" : 5126, "count" : 24, "type" : "VEC3", "max" : [1.0000044107437134, 1.0000044107437134, 1.0000044107437134], "min" : [-1.0000044107437134, -1.0000044107437134, -1.0000044107437134], "name" : "NORMAL"}, {"bufferView" : 4, "byteOffset" : 24, "componentType" : 5126, "count" : 24, "type" : "VEC2", "max" : [0.3293036222457886, 0.569301962852478], "min" : [0.06297421455383301, 0.19110679626464844], "name" : "TEXCOORD_0"}, {"bufferView" : 0, "byteOffset" : 50516, "componentType" : 5123, "count" : 36, "type" : "SCALAR", "max" : [23], "min" : [0]}, {"bufferView" : 5, "byteOffset" : 0, "componentType" : 5126, "count" : 24, "type" : "VEC3", "max" : [1, 1, 1], "min" : [-1, -1, -1], "name" : "POSITION"}, {"bufferView" : 5, "byteOffset" : 12, "componentType" : 5126, "count" : 24, "type" : "VEC3", "max" : [1.0000044107437134, 1.0000044107437134, 1.0000044107437134], "min" : [-1.0000044107437134, -1.0000044107437134, -1.0000044107437134], "name" : "NORMAL"}, {"bufferView" : 5, "byteOffset" : 24, "componentType" : 5126, "count" : 24, "type" : "VEC2", "max" : [0.875, 1], "min" : [0.125, 0], "name" : "TEXCOORD_0"}, {"bufferView" : 0, "byteOffset" : 50588, "componentType" : 5123, "count" : 2697, "type" : "SCALAR", "max" : [1795], "min" : [0]}, {"bufferView" : 6, "byteOffset" : 0, "componentType" : 5126, "count" : 1796, "type" : "VEC3", "max" : [461.5502624511719, 488.1615295410156, -13.451468467712402], "min" : [-989.8997802734375, -187.02243041992188, -20.56985092163086], "name" : "POSITION"}, {"bufferView" : 6, "byteOffset" : 12, "componentType" : 5126, "count" : 1796, "type" : "VEC3", "max" : [0.2649691104888916, 0.21176092326641083, 1.0000044107437134], "min" : [-0.19863155484199524, -0.6247617602348328, -1.0000044107437134], "name" : "NORMAL"}, {"bufferView" : 6, "byteOffset" : 24, "componentType" : 5126, "count" : 1796, "type" : "VEC2", "max" : [18.68023681640625, 1], "min" : [-17.49675750732422, -0.8111252784729004], "name" : "TEXCOORD_0"}], "asset" : {"generator" : "Aspose.3D 25.2.0", "version" : "2.0"}, "buffers" : [{"uri" : "data:application/octet-stream;base64,", "byteLength" : 656652}], "bufferViews" : [{"buffer" : 0, "byteOffset" : 0, "byteLength" : 55984, "target" : 34963}, {"buffer" : 0, "byteOffset" : 55988, "byteLength" : 310976, "byteStride" : 32, "target" : 34962}, {"buffer" : 0, "byteOffset" : 366968, "byteLength" : 128, "byteStride" : 32, "target" : 34962}, {"buffer" : 0, "byteOffset" : 367100, "byteLength" : 230528, "byteStride" : 32, "target" : 34962}, {"buffer" : 0, "byteOffset" : 597632, "byteLength" : 768, "byteStride" : 32, "target" : 34962}, {"buffer" : 0, "byteOffset" : 598404, "byteLength" : 768, "byteStride" : 32, "target" : 34962}, {"buffer" : 0, "byteOffset" : 599176, "byteLength" : 57472, "byteStride" : 32, "target" : 34962}], "cameras" : [{"perspective" : {"aspectRatio" : 1.5, "yfov" : 0.6911112070083618, "zfar" : 10000, "znear" : 10.000000149011612}, "type" : "perspective", "name" : "Camera"}], "images" : [{"uri" : "/home/vanshofficial10/texture-high.jpg"}, {"uri" : "/home/vanshofficial10/Screenshot 2025-03-02 11.44.09 AM.png"}, {"uri" : "/home/vanshofficial10/highway_EEZY_RMPL-01.jpg"}, {"uri" : "/home/vanshofficial10/360_F_285209082_apcOlAkKVZCr77bBOTGNd4nFT1kw27gS.jpg"}], "materials" : [{"name" : "Material.002", "pbrMetallicRoughness" : {"baseColorFactor" : [1, 1, 1, 1], "baseColorTexture" : {"index" : 0, "texCoord" : 0}, "metallicFactor" : 1, "roughnessFactor" : 1}, "emissiveFactor" : [0, 0, 0], "alphaMode" : "OPAQUE", "doubleSided" : false}, {"name" : "Material.001", "pbrMetallicRoughness" : {"baseColorFactor" : [1, 1, 1, 1], "baseColorTexture" : {"index" : 1, "texCoord" : 0}, "metallicFactor" : 1, "roughnessFactor" : 1}, "emissiveFactor" : [0, 0, 0], "alphaMode" : "OPAQUE", "doubleSided" : false}, {"name" : "Material.005", "pbrMetallicRoughness" : {"baseColorFactor" : [1, 1, 1, 1], "baseColorTexture" : {"index" : 2, "texCoord" : 0}, "metallicFactor" : 1, "roughnessFactor" : 1}, "emissiveFactor" : [0, 0, 0], "alphaMode" : "OPAQUE", "doubleSided" : false}, {"name" : "Material", "pbrMetallicRoughness" : {"baseColorFactor" : [1, 1, 1, 1], "baseColorTexture" : {"index" : 3, "texCoord" : 0}, "metallicFactor" : 1, "roughnessFactor" : 1}, "emissiveFactor" : [0, 0, 0], "alphaMode" : "OPAQUE", "doubleSided" : false}], "meshes" : [{"primitives" : [{"attributes" : {"POSITION" : 1, "NORMAL" : 2, "TEXCOORD_0" : 3}, "indices" : 0, "material" : 0, "mode" : 4}], "name" : "Plane"}, {"primitives" : [{"attributes" : {"POSITION" : 5, "NORMAL" : 6, "TEXCOORD_0" : 7}, "indices" : 4, "material" : 1, "mode" : 4}], "name" : "Plane.001"}, {"primitives" : [{"attributes" : {"POSITION" : 9, "NORMAL" : 10, "TEXCOORD_0" : 11}, "indices" : 8, "mode" : 4}], "name" : "Text"}, {"primitives" : [{"attributes" : {"POSITION" : 13, "NORMAL" : 14, "TEXCOORD_0" : 15}, "indices" : 12, "material" : 2, "mode" : 4}], "name" : "Cube.003"}, {"primitives" : [{"attributes" : {"POSITION" : 17, "NORMAL" : 18, "TEXCOORD_0" : 19}, "indices" : 16, "mode" : 4}], "name" : "Cube.002"}, {"primitives" : [{"attributes" : {"POSITION" : 21, "NORMAL" : 22, "TEXCOORD_0" : 23}, "indices" : 20, "material" : 3, "mode" : 4}], "name" : "Cube.004"}], "nodes" : [{"camera" : 0, "matrix" : [-65.15581275167911, -44.527139154551755, -61.417049289096546, 0, -32.401349332924404, 89.5395728270982, -30.542085476036892, 0, 68.59207001076241, 8.666908834403258E-06, -72.76761921184276, 0, 735.88916015625, 495.8309326171875, 692.5791015625, 1], "name" : "Camera"}, {"matrix" : [100, 0, 0, 0, 0, -4.371139000186241E-06, -99.9999999999999, 0, 0, 99.9999999999999, -4.371139000186241E-06, 0, 0, 0, 0, 1], "mesh" : 0, "name" : "Plane"}, {"matrix" : [98867.328125, 0, 0, 0, 0, -0.0021276242472266674, -48674.36718749995, 0, 0, 99561.2031249999, -0.0043519585788515175, 0, 0, -2061.8671875, 0, 1], "mesh" : 1, "name" : "Plane.001"}, {"matrix" : [175.9343719482422, 0, 0, 0, 0, 175.93437194824202, 7.690335020168536E-06, 0, 0, -7.690335020168536E-06, 175.93437194824202, 0, -2113.94775390625, -1403.9217529296875, -29929.193359375, 1], "mesh" : 2, "name" : "Text"}, {"matrix" : [100, 0, 0, 0, 0, -4.371139000186241E-06, -99.9999999999999, 0, 0, 99.9999999999999, -4.371139000186241E-06, 0, 0, 0, 0, 1], "mesh" : 3, "name" : "Cube"}, {"matrix" : [310.8381042480469, 0, 0, 0, 0, -1.3587165602225943E-05, -310.8381042480466, 0, 0, 111.00412750244129, -4.852144709075678E-06, 0, -18653.232421875, 2134.0126953125, -50438.765625, 1], "mesh" : 4, "name" : "Cube.001"}, {"matrix" : [100, 0, 0, 0, 0, -4.371139000186241E-06, -99.9999999999999, 0, 0, 99.9999999999999, -4.371139000186241E-06, 0, 0, 0, 0, 1], "mesh" : 5, "name" : "Cube.002"}], "samplers" : [{"magFilter" : 9729, "minFilter" : 9729, "wrapS" : 10497, "wrapT" : 10497}, {"magFilter" : 9729, "minFilter" : 9729, "wrapS" : 10497, "wrapT" : 10497}, {"magFilter" : 9729, "minFilter" : 9729, "wrapS" : 10497, "wrapT" : 10497}, {"magFilter" : 9729, "minFilter" : 9729, "wrapS" : 10497, "wrapT" : 10497}], "scene" : 0, "scenes" : [{"nodes" : [0, 1, 2, 3, 4, 5, 6]}], "textures" : [{"sampler" : 0, "source" : 0, "name" : "base_color_texture"}, {"sampler" : 1, "source" : 1, "name" : "base_color_texture"}, {"sampler" : 2, "source" : 2, "name" : "base_color_texture"}, {"sampler" : 3, "source" : 3, "name" : "base_color_texture"}]}